<svg width="592" height="283" viewBox="0 0 592 283" fill="none" xmlns="http://www.w3.org/2000/svg">
<g filter="url(#filter0_d_0_1)">
<path d="M228.2 80.5C228.2 80.8 228.083 81.05 227.85 81.25C227.65 81.45 227.367 81.55 227 81.55H196.1V80.7H218.3C218.9 80.7 219.2 80.3833 219.2 79.75C219.2 74.2833 218.3 70.1667 216.5 67.4C214.733 64.6 212.483 63.2 209.75 63.2C207.383 63.2 205.35 63.9333 203.65 65.4C201.983 66.8333 200.7 68.95 199.8 71.75C198.9 74.5167 198.45 77.9 198.45 81.9C198.45 88.7333 199.917 93.9333 202.85 97.5C205.817 101.067 209.65 102.85 214.35 102.85C217.683 102.85 220.533 101.9 222.9 100C225.3 98.0667 226.733 95.45 227.2 92.15C227.267 92.0167 227.333 91.9167 227.4 91.85C227.467 91.7833 227.517 91.75 227.55 91.75C227.65 91.75 227.733 91.8 227.8 91.9C227.867 91.9667 227.9 92.1 227.9 92.3C227.6 95.3 226.633 97.9833 225 100.35C223.4 102.717 221.3 104.583 218.7 105.95C216.1 107.317 213.183 108 209.95 108C206.017 108 202.55 107.117 199.55 105.35C196.583 103.55 194.267 101.017 192.6 97.75C190.967 94.4833 190.15 90.6333 190.15 86.2C190.15 81.5667 191 77.4667 192.7 73.9C194.433 70.3 196.85 67.4833 199.95 65.45C203.05 63.3833 206.667 62.35 210.8 62.35C214.333 62.35 217.4 63.1333 220 64.7C222.6 66.2667 224.617 68.4167 226.05 71.15C227.483 73.8833 228.2 77 228.2 80.5ZM246.588 34.05V104.25C246.588 104.65 246.688 104.983 246.888 105.25C247.088 105.483 247.404 105.65 247.838 105.75L250.938 106.2C251.171 106.233 251.321 106.3 251.388 106.4C251.454 106.467 251.488 106.55 251.488 106.65C251.488 106.75 251.438 106.833 251.338 106.9C251.271 106.967 251.171 107 251.038 107H233.038C232.938 107 232.838 106.967 232.738 106.9C232.671 106.833 232.638 106.75 232.638 106.65C232.638 106.55 232.688 106.467 232.788 106.4C232.921 106.3 233.104 106.217 233.338 106.15L236.388 105.75C236.854 105.65 237.171 105.483 237.338 105.25C237.538 104.983 237.638 104.667 237.638 104.3V38.4C237.638 38.2 237.588 38.05 237.488 37.95C237.421 37.8167 237.271 37.75 237.038 37.75H233.138C233.004 37.75 232.904 37.7167 232.838 37.65C232.771 37.55 232.738 37.4667 232.738 37.4C232.738 37.2667 232.771 37.1667 232.838 37.1C232.938 37.0333 233.054 36.9833 233.188 36.95L245.038 33.6C245.338 33.5 245.538 33.45 245.638 33.45C245.771 33.4167 245.904 33.4 246.038 33.4C246.204 33.4 246.338 33.4667 246.438 33.6C246.538 33.7 246.588 33.85 246.588 34.05ZM293.239 80.5C293.239 80.8 293.122 81.05 292.889 81.25C292.689 81.45 292.406 81.55 292.039 81.55H261.139V80.7H283.339C283.939 80.7 284.239 80.3833 284.239 79.75C284.239 74.2833 283.339 70.1667 281.539 67.4C279.772 64.6 277.522 63.2 274.789 63.2C272.422 63.2 270.389 63.9333 268.689 65.4C267.022 66.8333 265.739 68.95 264.839 71.75C263.939 74.5167 263.489 77.9 263.489 81.9C263.489 88.7333 264.956 93.9333 267.889 97.5C270.856 101.067 274.689 102.85 279.389 102.85C282.722 102.85 285.572 101.9 287.939 100C290.339 98.0667 291.772 95.45 292.239 92.15C292.306 92.0167 292.372 91.9167 292.439 91.85C292.506 91.7833 292.556 91.75 292.589 91.75C292.689 91.75 292.772 91.8 292.839 91.9C292.906 91.9667 292.939 92.1 292.939 92.3C292.639 95.3 291.672 97.9833 290.039 100.35C288.439 102.717 286.339 104.583 283.739 105.95C281.139 107.317 278.222 108 274.989 108C271.056 108 267.589 107.117 264.589 105.35C261.622 103.55 259.306 101.017 257.639 97.75C256.006 94.4833 255.189 90.6333 255.189 86.2C255.189 81.5667 256.039 77.4667 257.739 73.9C259.472 70.3 261.889 67.4833 264.989 65.45C268.089 63.3833 271.706 62.35 275.839 62.35C279.372 62.35 282.439 63.1333 285.039 64.7C287.639 66.2667 289.656 68.4167 291.089 71.15C292.522 73.8833 293.239 77 293.239 80.5ZM334.427 73.5C334.427 74.9 334.01 76.05 333.177 76.95C332.377 77.8167 331.293 78.25 329.927 78.25C328.56 78.25 327.46 77.8167 326.627 76.95C325.793 76.05 325.377 74.7833 325.377 73.15V70.25C325.377 68.1167 324.693 66.4167 323.327 65.15C321.993 63.85 320.16 63.2 317.827 63.2C315.427 63.2 313.327 63.9667 311.527 65.5C309.76 67.0333 308.377 69.1833 307.377 71.95C306.41 74.7167 305.927 77.95 305.927 81.65C305.927 86.0833 306.593 89.8333 307.927 92.9C309.26 95.9333 311.077 98.25 313.377 99.85C315.677 101.417 318.26 102.2 321.127 102.2C324.227 102.2 326.893 101.45 329.127 99.95C331.393 98.4167 332.977 96.0833 333.877 92.95C333.91 92.8167 333.96 92.7333 334.027 92.7C334.093 92.6333 334.16 92.6 334.227 92.6C334.327 92.6 334.393 92.65 334.427 92.75C334.493 92.8167 334.51 92.9167 334.477 93.05C333.81 96.2167 332.643 98.9167 330.977 101.15C329.343 103.35 327.31 105.033 324.877 106.2C322.477 107.333 319.76 107.9 316.727 107.9C313.093 107.9 309.81 107.067 306.877 105.4C303.977 103.7 301.677 101.217 299.977 97.95C298.277 94.6833 297.427 90.6833 297.427 85.95C297.427 81.5167 298.31 77.5333 300.077 74C301.877 70.4333 304.377 67.6 307.577 65.5C310.777 63.4 314.477 62.35 318.677 62.35C322.01 62.35 324.843 62.85 327.177 63.85C329.51 64.8167 331.293 66.15 332.527 67.85C333.793 69.55 334.427 71.4333 334.427 73.5ZM341.949 65L337.349 64.2C337.183 64.1333 337.049 64.0667 336.949 64C336.883 63.9333 336.849 63.85 336.849 63.75C336.849 63.65 336.883 63.5667 336.949 63.5C337.049 63.4333 337.133 63.4 337.199 63.4H341.749C342.049 63.4 342.283 63.35 342.449 63.25C342.649 63.15 342.799 63 342.899 62.8L349.949 53.8C350.083 53.6333 350.216 53.5 350.349 53.4C350.516 53.3 350.683 53.25 350.849 53.25C351.016 53.25 351.149 53.3 351.249 53.4C351.349 53.5 351.399 53.65 351.399 53.85V96.85C351.399 99.3833 351.899 101.283 352.899 102.55C353.899 103.783 355.266 104.4 356.999 104.4C357.666 104.4 358.299 104.317 358.899 104.15C359.499 103.95 360.049 103.65 360.549 103.25C361.049 102.85 361.499 102.35 361.899 101.75C362.299 101.15 362.633 100.433 362.899 99.6C362.999 99.4667 363.099 99.4167 363.199 99.45C363.333 99.45 363.383 99.5667 363.349 99.8C362.816 101.6 362.116 103.1 361.249 104.3C360.383 105.467 359.299 106.35 357.999 106.95C356.699 107.517 355.166 107.8 353.399 107.8C350.033 107.8 347.399 107 345.499 105.4C343.633 103.767 342.699 101.267 342.699 97.9V66.05C342.699 65.75 342.649 65.5167 342.549 65.35C342.449 65.1833 342.249 65.0667 341.949 65ZM348.399 64.45L348.599 63.4H362.849C363.049 63.4 363.183 63.4333 363.249 63.5C363.316 63.5667 363.349 63.6667 363.349 63.8C363.349 63.9667 363.233 64.1167 362.999 64.25C362.799 64.3833 362.499 64.45 362.099 64.45H348.399ZM379.767 82.95C379.767 78.4167 380.384 74.6333 381.617 71.6C382.884 68.5667 384.501 66.2833 386.467 64.75C388.434 63.1833 390.467 62.4 392.567 62.4C394.967 62.4 396.817 63.1167 398.117 64.55C399.417 65.9833 400.067 67.95 400.067 70.45C400.067 72.3833 399.617 73.8333 398.717 74.8C397.851 75.7667 396.734 76.25 395.367 76.25C394.134 76.25 393.184 75.8833 392.517 75.15C391.851 74.4167 391.484 73.3333 391.417 71.9L391.367 70.45C391.367 69.2833 391.134 68.4167 390.667 67.85C390.201 67.2833 389.401 67 388.267 67C386.967 67 385.717 67.6 384.517 68.8C383.317 70 382.317 71.8 381.517 74.2C380.717 76.6 380.317 79.5833 380.317 83.15L379.767 82.95ZM380.317 63.5V80.4V104.05C380.317 104.417 380.434 104.733 380.667 105C380.901 105.267 381.217 105.45 381.617 105.55L386.567 106.25C386.767 106.283 386.901 106.333 386.967 106.4C387.067 106.433 387.117 106.517 387.117 106.65C387.117 106.75 387.067 106.833 386.967 106.9C386.867 106.967 386.734 107 386.567 107H366.917C366.751 107 366.617 106.967 366.517 106.9C366.417 106.8 366.367 106.7 366.367 106.6C366.367 106.533 366.417 106.467 366.517 106.4C366.651 106.3 366.817 106.233 367.017 106.2L370.167 105.75C370.601 105.65 370.901 105.483 371.067 105.25C371.267 105.017 371.367 104.733 371.367 104.4V67.5C371.367 67.3 371.317 67.1333 371.217 67C371.151 66.8667 371.001 66.8 370.767 66.8H366.817C366.717 66.7667 366.617 66.7167 366.517 66.65C366.451 66.5833 366.417 66.5167 366.417 66.45C366.417 66.3167 366.451 66.2167 366.517 66.15C366.617 66.0833 366.751 66.0333 366.917 66L378.767 63C379.034 62.9333 379.234 62.8833 379.367 62.85C379.534 62.8167 379.667 62.8 379.767 62.8C379.967 62.8 380.101 62.8667 380.167 63C380.267 63.1333 380.317 63.3 380.317 63.5ZM425.491 62.4C429.724 62.4 433.491 63.3833 436.791 65.35C440.091 67.2833 442.691 69.9833 444.591 73.45C446.491 76.8833 447.441 80.85 447.441 85.35C447.441 89.8167 446.474 93.75 444.541 97.15C442.607 100.55 439.957 103.217 436.591 105.15C433.224 107.05 429.357 108 424.991 108C420.757 108 416.991 107.05 413.691 105.15C410.424 103.25 407.857 100.6 405.991 97.2C404.157 93.8 403.241 89.85 403.241 85.35C403.241 80.8833 404.174 76.9333 406.041 73.5C407.907 70.0333 410.507 67.3167 413.841 65.35C417.207 63.3833 421.091 62.4 425.491 62.4ZM427.841 107.05C430.341 106.85 432.424 105.833 434.091 104C435.791 102.133 436.974 99.5167 437.641 96.15C438.341 92.7833 438.441 88.7333 437.941 84C437.441 79.2 436.491 75.2333 435.091 72.1C433.724 68.9333 431.991 66.6167 429.891 65.15C427.824 63.6833 425.474 63.0667 422.841 63.3C420.207 63.5333 418.057 64.6 416.391 66.5C414.724 68.4 413.574 71.0333 412.941 74.4C412.307 77.7667 412.241 81.7833 412.741 86.45C413.241 91.0833 414.191 94.9833 415.591 98.15C417.024 101.283 418.791 103.617 420.891 105.15C422.991 106.65 425.307 107.283 427.841 107.05ZM530.816 108.15C527.082 108.15 523.499 107.717 520.066 106.85C516.632 105.983 513.432 104.533 510.466 102.5C507.499 100.433 504.816 97.6167 502.416 94.05C500.216 90.7167 498.482 87.4167 497.216 84.15C495.949 80.85 495.049 77.65 494.516 74.55C493.982 71.45 493.716 68.5167 493.716 65.75C493.716 61.35 494.582 57.4667 496.316 54.1C498.049 50.7333 500.532 48.1 503.766 46.2C506.999 44.3 510.849 43.35 515.316 43.35C518.416 43.35 521.149 43.95 523.516 45.15C525.916 46.3167 527.782 47.9333 529.116 50C530.449 52.0333 531.116 54.3833 531.116 57.05C531.116 60.3167 530.199 63.15 528.366 65.55C526.532 67.95 523.932 69.8167 520.566 71.15C517.232 72.45 513.232 73.1667 508.566 73.3L508.366 72.6C510.166 72.4667 511.766 71.7667 513.166 70.5C514.599 69.2333 515.732 67.4 516.566 65C517.399 62.6 517.816 59.6833 517.816 56.25C517.816 52.8833 517.532 50.1333 516.966 48C516.432 45.8667 515.516 44.8 514.216 44.8C512.682 44.8 511.332 46 510.166 48.4C509.032 50.7667 508.466 53.7167 508.466 57.25C508.466 61.25 508.816 64.95 509.516 68.35C510.249 71.7167 511.349 74.95 512.816 78.05C514.282 81.1167 516.116 84.1833 518.316 87.25C521.249 91.3833 523.832 94.65 526.066 97.05C528.299 99.4167 530.499 101.117 532.666 102.15C534.832 103.15 537.232 103.65 539.866 103.65C542.932 103.65 545.616 102.9 547.916 101.4C550.216 99.9 551.999 97.6 553.266 94.5C554.566 91.4 555.216 87.5167 555.216 82.85C555.216 77.1833 554.082 71.5333 551.816 65.9C549.549 60.2667 546.349 55.1667 542.216 50.6C537.716 45.5667 532.382 41.5 526.216 38.4C520.082 35.2667 513.432 33.7 506.266 33.7C501.432 33.7 497.416 34.2667 494.216 35.4C491.049 36.5 488.666 38.0667 487.066 40.1C485.466 42.1333 484.666 44.5833 484.666 47.45C484.666 48.9833 484.799 50.3333 485.066 51.5C485.332 52.6667 485.632 53.7667 485.966 54.8C486.299 55.8333 486.582 56.9 486.816 58C487.082 59.1 487.216 60.3333 487.216 61.7C487.216 63.7333 486.582 65.4167 485.316 66.75C484.049 68.05 482.416 68.7 480.416 68.7C477.782 68.7 475.716 67.7667 474.216 65.9C472.716 64.0333 471.966 61.3167 471.966 57.75C471.966 52.95 473.332 48.6833 476.066 44.95C478.799 41.1833 482.749 38.2167 487.916 36.05C493.082 33.8833 499.282 32.8 506.516 32.8C513.749 32.8 520.516 34.3833 526.816 37.55C533.116 40.7167 538.566 44.8833 543.166 50.05C547.299 54.65 550.499 59.8 552.766 65.5C555.066 71.1667 556.216 76.9333 556.216 82.8C556.216 88.3667 555.232 93.0333 553.266 96.8C551.332 100.567 548.466 103.4 544.666 105.3C540.899 107.2 536.282 108.15 530.816 108.15ZM525.416 97.4C526.749 96.5333 527.782 95.4333 528.516 94.1C529.249 92.7667 529.766 91.4 530.066 90C530.366 88.6 530.516 87.4 530.516 86.4C530.516 84.7333 530.366 83.3333 530.066 82.2C529.766 81.0667 529.449 80 529.116 79C528.816 78 528.666 76.8833 528.666 75.65C528.666 73.7167 529.432 72.0167 530.966 70.55C532.532 69.0833 534.499 68.35 536.866 68.35C538.999 68.35 540.849 69.1667 542.416 70.8C543.982 72.4 544.766 74.75 544.766 77.85C544.766 82.2167 543.116 86.1833 539.816 89.75C536.549 93.3167 531.832 96.05 525.666 97.95L525.416 97.4ZM495.866 74.5C494.299 74.6 492.949 75.25 491.816 76.45C490.682 77.6167 489.799 79.15 489.166 81.05C488.532 82.95 488.216 85.0333 488.216 87.3C488.216 92.1 489.349 95.8167 491.616 98.45C493.882 101.05 497.049 102.35 501.116 102.35C503.016 102.35 504.682 102.117 506.116 101.65C507.549 101.183 508.782 100.567 509.816 99.8L510.316 101.15C508.849 102.45 507.182 103.633 505.316 104.7C503.449 105.767 501.232 106.6 498.666 107.2C496.132 107.8 493.049 108.1 489.416 108.1C483.649 108.1 479.166 106.65 475.966 103.75C472.799 100.817 471.216 96.9167 471.216 92.05C471.216 88.3167 472.166 85.1167 474.066 82.45C475.999 79.7833 478.799 77.7 482.466 76.2C486.132 74.7 490.566 73.9 495.766 73.8L495.866 74.5ZM218.65 229.45C222.583 230.383 225.633 231.383 227.8 232.45C230 233.517 231.517 234.75 232.35 236.15C233.217 237.583 233.65 239.283 233.65 241.25C233.65 245.15 231.75 248.35 227.95 250.85C224.183 253.35 218.867 254.6 212 254.6C206.767 254.6 202.467 254.1 199.1 253.1C195.767 252.133 193.3 250.8 191.7 249.1C190.1 247.4 189.3 245.467 189.3 243.3C189.3 240.567 190.533 238.233 193 236.3C195.5 234.367 199.7 232.983 205.6 232.15L205.75 232.75C202.383 233.283 199.833 234.3 198.1 235.8C196.4 237.333 195.55 239.1 195.55 241.1C195.55 244.833 196.933 247.85 199.7 250.15C202.467 252.483 206.75 253.65 212.55 253.65C215.65 253.65 218.233 253.3 220.3 252.6C222.367 251.933 223.917 250.95 224.95 249.65C225.983 248.35 226.5 246.767 226.5 244.9C226.5 243.6 226.133 242.433 225.4 241.4C224.7 240.367 223.4 239.4 221.5 238.5C219.633 237.633 216.967 236.767 213.5 235.9C209.3 234.8 206.017 233.783 203.65 232.85C201.317 231.917 199.667 230.933 198.7 229.9C197.767 228.833 197.3 227.6 197.3 226.2C197.3 224.933 197.617 223.8 198.25 222.8C198.917 221.767 200 220.867 201.5 220.1C203 219.3 205.05 218.617 207.65 218.05L207.6 218.45C206.667 218.817 205.9 219.317 205.3 219.95C204.7 220.55 204.4 221.25 204.4 222.05C204.4 222.85 204.717 223.583 205.35 224.25C206.017 224.917 207.35 225.65 209.35 226.45C211.383 227.25 214.483 228.25 218.65 229.45ZM219.15 188.2L219.6 187.35C220.9 185.05 222.333 183.183 223.9 181.75C225.467 180.317 227.317 179.6 229.45 179.6C231.317 179.6 232.8 180.133 233.9 181.2C235.033 182.267 235.6 183.617 235.6 185.25C235.6 186.517 235.283 187.517 234.65 188.25C234.017 188.983 233.1 189.35 231.9 189.35C231 189.35 230.25 189.083 229.65 188.55C229.05 188.017 228.5 187.4 228 186.7C227.533 185.967 227.05 185.333 226.55 184.8C226.05 184.267 225.467 184 224.8 184C223.867 184 223.017 184.383 222.25 185.15C221.483 185.917 220.683 186.95 219.85 188.25L219.15 188.2ZM230.15 201.85C230.15 205.183 229.3 208.15 227.6 210.75C225.9 213.317 223.583 215.333 220.65 216.8C217.717 218.267 214.417 219 210.75 219C206.983 219 203.65 218.283 200.75 216.85C197.883 215.383 195.633 213.433 194 211C192.4 208.533 191.6 205.8 191.6 202.8C191.6 199.467 192.4 196.5 194 193.9C195.6 191.267 197.883 189.183 200.85 187.65C203.817 186.117 207.333 185.35 211.4 185.35C215.167 185.35 218.45 186.1 221.25 187.6C224.083 189.067 226.267 191.05 227.8 193.55C229.367 196.05 230.15 198.817 230.15 201.85ZM209.2 186.4C207.367 186.467 205.767 187.15 204.4 188.45C203.033 189.717 201.983 191.467 201.25 193.7C200.55 195.933 200.3 198.517 200.5 201.45C200.7 204.717 201.333 207.6 202.4 210.1C203.467 212.567 204.85 214.5 206.55 215.9C208.283 217.267 210.2 217.917 212.3 217.85C215.133 217.783 217.367 216.4 219 213.7C220.667 210.967 221.35 207.367 221.05 202.9C220.75 197.867 219.517 193.85 217.35 190.85C215.217 187.817 212.5 186.333 209.2 186.4ZM251.666 157.05V227.25C251.666 227.65 251.766 227.983 251.966 228.25C252.166 228.483 252.482 228.65 252.916 228.75L256.016 229.2C256.249 229.233 256.399 229.3 256.466 229.4C256.532 229.467 256.566 229.55 256.566 229.65C256.566 229.75 256.516 229.833 256.416 229.9C256.349 229.967 256.249 230 256.116 230H238.116C238.016 230 237.916 229.967 237.816 229.9C237.749 229.833 237.716 229.75 237.716 229.65C237.716 229.55 237.766 229.467 237.866 229.4C237.999 229.3 238.182 229.217 238.416 229.15L241.466 228.75C241.932 228.65 242.249 228.483 242.416 228.25C242.616 227.983 242.716 227.667 242.716 227.3V161.4C242.716 161.2 242.666 161.05 242.566 160.95C242.499 160.817 242.349 160.75 242.116 160.75H238.216C238.082 160.75 237.982 160.717 237.916 160.65C237.849 160.55 237.816 160.467 237.816 160.4C237.816 160.267 237.849 160.167 237.916 160.1C238.016 160.033 238.132 159.983 238.266 159.95L250.116 156.6C250.416 156.5 250.616 156.45 250.716 156.45C250.849 156.417 250.982 156.4 251.116 156.4C251.282 156.4 251.416 156.467 251.516 156.6C251.616 156.7 251.666 156.85 251.666 157.05ZM286.767 225.3V224.95L286.367 225.25V195.25C286.367 192.25 285.767 189.967 284.567 188.4C283.367 186.833 281.601 186.05 279.267 186.05C276.667 186.05 274.767 186.667 273.567 187.9C272.367 189.1 271.767 190.383 271.767 191.75V195.2C271.767 196.6 271.301 197.733 270.367 198.6C269.467 199.467 268.301 199.9 266.867 199.9C265.801 199.9 264.917 199.567 264.217 198.9C263.551 198.2 263.217 197.183 263.217 195.85C263.217 194.15 263.867 192.5 265.167 190.9C266.467 189.267 268.384 187.933 270.917 186.9C273.484 185.867 276.617 185.35 280.317 185.35C285.351 185.35 289.101 186.467 291.567 188.7C294.067 190.9 295.317 193.983 295.317 197.95V224.5C295.317 225.867 295.534 226.833 295.967 227.4C296.434 227.967 296.984 228.25 297.617 228.25C298.251 228.25 298.801 228.067 299.267 227.7C299.734 227.333 300.017 226.783 300.117 226.05C300.151 225.95 300.184 225.883 300.217 225.85C300.284 225.783 300.351 225.75 300.417 225.75C300.517 225.75 300.584 225.783 300.617 225.85C300.651 225.883 300.667 225.967 300.667 226.1C300.667 226.667 300.417 227.317 299.917 228.05C299.451 228.783 298.684 229.433 297.617 230C296.584 230.567 295.217 230.85 293.517 230.85C291.251 230.85 289.551 230.35 288.417 229.35C287.317 228.35 286.767 227 286.767 225.3ZM260.817 220.4C260.817 216.933 262.251 214.117 265.117 211.95C267.984 209.75 272.351 208.65 278.217 208.65C280.551 208.65 282.484 208.883 284.017 209.35C285.584 209.783 287.034 210.317 288.367 210.95L288.017 211.4C286.717 210.8 285.351 210.317 283.917 209.95C282.517 209.583 280.951 209.4 279.217 209.4C276.184 209.4 273.867 210.267 272.267 212C270.701 213.733 269.917 216.067 269.917 219C269.917 221.9 270.651 224.167 272.117 225.8C273.617 227.4 275.584 228.2 278.017 228.2C279.717 228.2 281.384 227.833 283.017 227.1C284.684 226.333 286.084 225.233 287.217 223.8L287.717 224.2C286.184 226.367 284.134 228.033 281.567 229.2C279.034 230.333 276.284 230.9 273.317 230.9C269.584 230.9 266.567 229.933 264.267 228C261.967 226.033 260.817 223.5 260.817 220.4ZM317.817 186.3V227.3C317.817 227.667 317.917 227.983 318.117 228.25C318.351 228.517 318.667 228.7 319.067 228.8L322.167 229.25C322.501 229.283 322.667 229.417 322.667 229.65C322.667 229.883 322.501 230 322.167 230H304.267C304.134 230 304.017 229.967 303.917 229.9C303.851 229.833 303.817 229.75 303.817 229.65C303.817 229.583 303.867 229.517 303.967 229.45C304.067 229.35 304.201 229.283 304.367 229.25L307.617 228.75C308.051 228.65 308.367 228.483 308.567 228.25C308.767 228.017 308.867 227.733 308.867 227.4V190.7C308.867 190.5 308.817 190.333 308.717 190.2C308.651 190.067 308.484 189.983 308.217 189.95H304.267C304.167 189.95 304.067 189.917 303.967 189.85C303.901 189.783 303.867 189.717 303.867 189.65C303.867 189.517 303.901 189.417 303.967 189.35C304.067 189.283 304.201 189.217 304.367 189.15L316.217 185.8C316.484 185.7 316.684 185.65 316.817 185.65C316.984 185.65 317.117 185.65 317.217 185.65C317.417 185.65 317.567 185.717 317.667 185.85C317.767 185.983 317.817 186.133 317.817 186.3ZM316.967 195.5L316.467 195.05L318.167 193.5C321.501 190.4 324.434 188.283 326.967 187.15C329.534 185.983 331.967 185.4 334.267 185.4C337.701 185.4 340.501 186.467 342.667 188.6C344.867 190.7 345.967 193.95 345.967 198.35V227.1C345.967 227.6 346.101 228 346.367 228.3C346.634 228.6 347.034 228.8 347.567 228.9L349.917 229.25C350.251 229.317 350.417 229.45 350.417 229.65C350.417 229.883 350.217 230 349.817 230H332.467C332.167 230 332.017 229.883 332.017 229.65C332.017 229.417 332.201 229.283 332.567 229.25L335.567 228.8C336.201 228.667 336.617 228.417 336.817 228.05C337.017 227.65 337.117 227.2 337.117 226.7V199.3C337.117 196.033 336.317 193.583 334.717 191.95C333.117 190.283 331.051 189.45 328.517 189.45C326.851 189.45 325.217 189.8 323.617 190.5C322.017 191.2 320.351 192.35 318.617 193.95L316.967 195.5ZM344.717 195.5L344.267 195.05L345.817 193.35C348.584 190.483 351.084 188.45 353.317 187.25C355.551 186.017 357.851 185.4 360.217 185.4C363.351 185.4 365.884 186.467 367.817 188.6C369.751 190.733 371.017 194 371.617 198.4L375.467 227.05C375.534 227.583 375.701 228.017 375.967 228.35C376.234 228.65 376.617 228.85 377.117 228.95L379.467 229.3C379.634 229.333 379.751 229.383 379.817 229.45C379.884 229.483 379.917 229.55 379.917 229.65C379.917 229.75 379.884 229.833 379.817 229.9C379.751 229.967 379.634 230 379.467 230H361.667C361.334 230 361.167 229.883 361.167 229.65C361.167 229.45 361.351 229.317 361.717 229.25L364.717 228.8C365.351 228.7 365.784 228.45 366.017 228.05C366.284 227.617 366.367 227.133 366.267 226.6L362.767 199.3C362.334 196.033 361.484 193.583 360.217 191.95C358.951 190.283 357.167 189.45 354.867 189.45C353.434 189.45 352.034 189.817 350.667 190.55C349.301 191.25 347.834 192.35 346.267 193.85L344.717 195.5Z" fill="black"/>
</g>
<path d="M426.6 230.64C424.04 230.64 421.533 230.427 419.08 230C416.68 229.627 414.387 228.987 412.2 228.08C410.067 227.173 408.147 225.973 406.44 224.48C406.067 224.16 405.827 223.84 405.72 223.52C405.667 223.147 405.693 222.8 405.8 222.48C405.907 222.16 406.093 221.893 406.36 221.68C406.627 221.467 406.947 221.387 407.32 221.44C407.693 221.44 408.093 221.6 408.52 221.92C411.187 224.053 413.987 225.493 416.92 226.24C419.853 226.987 423.133 227.36 426.76 227.36C431.56 227.36 435.453 226.32 438.44 224.24C441.48 222.107 443 219.173 443 215.44C443 212.933 442.12 210.773 440.36 208.96C438.6 207.147 435.427 205.733 430.84 204.72L422.92 202.8C419.347 201.947 416.467 200.507 414.28 198.48C412.093 196.4 411 193.253 411 189.04C411 186.64 411.507 184.453 412.52 182.48C413.533 180.507 414.947 178.827 416.76 177.44C418.573 176 420.68 174.907 423.08 174.16C425.533 173.36 428.147 172.96 430.92 172.96C434.227 172.96 437.533 173.493 440.84 174.56C444.147 175.573 446.92 177.227 449.16 179.52C449.48 179.84 449.667 180.213 449.72 180.64C449.827 181.013 449.8 181.36 449.64 181.68C449.533 182 449.347 182.267 449.08 182.48C448.813 182.64 448.493 182.72 448.12 182.72C447.8 182.667 447.427 182.453 447 182.08C444.76 179.947 442.227 178.453 439.4 177.6C436.627 176.693 433.747 176.24 430.76 176.24C427.72 176.24 424.973 176.773 422.52 177.84C420.067 178.907 418.12 180.4 416.68 182.32C415.24 184.187 414.52 186.427 414.52 189.04C414.52 192.347 415.293 194.747 416.84 196.24C418.387 197.733 420.653 198.853 423.64 199.6L431.56 201.52C436.84 202.693 440.653 204.427 443 206.72C445.347 209.013 446.52 211.813 446.52 215.12C446.52 217.573 446.013 219.787 445 221.76C443.987 223.68 442.573 225.307 440.76 226.64C439 227.92 436.893 228.907 434.44 229.6C432.04 230.293 429.427 230.64 426.6 230.64ZM456.329 230.48C455.795 230.48 455.395 230.32 455.129 230C454.915 229.627 454.862 229.12 454.969 228.48L463.449 174.8C463.555 174.213 463.769 173.787 464.089 173.52C464.409 173.253 464.835 173.12 465.369 173.12C465.902 173.12 466.275 173.307 466.489 173.68C466.755 174 466.835 174.48 466.729 175.12L462.649 200.88H461.769C463.102 197.68 465.102 195.173 467.769 193.36C470.435 191.547 473.662 190.64 477.449 190.64C480.329 190.64 482.729 191.227 484.649 192.4C486.622 193.52 488.009 195.253 488.809 197.6C489.662 199.893 489.795 202.827 489.209 206.4L485.689 228.8C485.635 229.333 485.422 229.733 485.049 230C484.729 230.32 484.275 230.48 483.689 230.48C483.155 230.48 482.755 230.32 482.489 230C482.275 229.627 482.222 229.12 482.329 228.48L485.849 206.32C486.542 202.053 486.169 198.907 484.729 196.88C483.289 194.8 480.835 193.76 477.369 193.76C472.782 193.76 469.155 195.147 466.489 197.92C463.875 200.64 462.195 204.293 461.449 208.88L458.329 228.8C458.169 229.92 457.502 230.48 456.329 230.48ZM514.788 230.64C511.641 230.64 508.894 229.973 506.548 228.64C504.201 227.307 502.388 225.413 501.108 222.96C499.881 220.453 499.268 217.467 499.268 214C499.268 210.907 499.668 207.973 500.467 205.2C501.321 202.373 502.574 199.867 504.228 197.68C505.881 195.493 507.908 193.787 510.308 192.56C512.708 191.28 515.481 190.64 518.628 190.64C521.828 190.64 524.574 191.307 526.868 192.64C529.214 193.973 531.001 195.893 532.228 198.4C533.508 200.853 534.148 203.813 534.148 207.28C534.148 210.373 533.721 213.333 532.868 216.16C532.068 218.933 530.841 221.413 529.188 223.6C527.534 225.787 525.508 227.52 523.108 228.8C520.708 230.027 517.934 230.64 514.788 230.64ZM514.948 227.52C518.361 227.52 521.241 226.587 523.588 224.72C525.934 222.853 527.694 220.373 528.868 217.28C530.094 214.187 530.708 210.8 530.708 207.12C530.708 202.693 529.614 199.36 527.428 197.12C525.294 194.88 522.308 193.76 518.468 193.76C515.054 193.76 512.174 194.693 509.828 196.56C507.481 198.427 505.694 200.907 504.468 204C503.294 207.04 502.708 210.427 502.708 214.16C502.708 218.533 503.774 221.867 505.908 224.16C508.094 226.4 511.108 227.52 514.948 227.52ZM541.274 244.88C540.741 244.88 540.341 244.693 540.074 244.32C539.861 244 539.808 243.52 539.914 242.88L547.914 192.48C548.021 191.893 548.234 191.467 548.554 191.2C548.874 190.933 549.301 190.8 549.834 190.8C550.368 190.8 550.741 190.987 550.954 191.36C551.221 191.68 551.301 192.16 551.194 192.8L549.994 200.32H549.114C550.501 197.333 552.501 194.987 555.114 193.28C557.728 191.52 560.821 190.64 564.394 190.64C567.434 190.64 570.101 191.307 572.394 192.64C574.688 193.973 576.448 195.867 577.674 198.32C578.954 200.773 579.594 203.707 579.594 207.12C579.594 211.28 578.848 215.147 577.354 218.72C575.914 222.293 573.754 225.173 570.874 227.36C567.994 229.547 564.448 230.64 560.234 230.64C556.981 230.64 554.074 229.813 551.514 228.16C548.954 226.453 547.221 223.813 546.314 220.24H546.874L543.194 243.2C543.141 243.733 542.954 244.133 542.634 244.4C542.314 244.72 541.861 244.88 541.274 244.88ZM560.394 227.52C563.808 227.52 566.688 226.587 569.034 224.72C571.381 222.853 573.141 220.373 574.314 217.28C575.541 214.187 576.154 210.8 576.154 207.12C576.154 202.693 575.061 199.36 572.874 197.12C570.741 194.88 567.754 193.76 563.914 193.76C560.501 193.76 557.621 194.693 555.274 196.56C552.928 198.427 551.141 200.907 549.914 204C548.741 207.04 548.154 210.427 548.154 214.16C548.154 218.533 549.221 221.867 551.354 224.16C553.541 226.4 556.554 227.52 560.394 227.52Z" fill="black"/>
<g clip-path="url(#clip0_0_1)" filter="url(#filter1_d_0_1)">
<path d="M74.25 247.25C74.25 249.413 73.5829 251.528 72.333 253.327C71.0831 255.125 69.3065 256.527 67.228 257.355C65.1495 258.183 62.8624 258.399 60.6558 257.977C58.4493 257.555 56.4225 256.514 54.8317 254.984C53.2408 253.454 52.1575 251.505 51.7186 249.384C51.2797 247.262 51.5049 245.063 52.3659 243.064C53.2268 241.066 54.6848 239.358 56.5554 238.156C58.426 236.954 60.6252 236.312 62.875 236.312C65.8918 236.312 68.7851 237.465 70.9183 239.516C73.0516 241.567 74.25 244.349 74.25 247.25ZM136.812 236.312C134.563 236.312 132.363 236.954 130.493 238.156C128.622 239.358 127.164 241.066 126.303 243.064C125.442 245.063 125.217 247.262 125.656 249.384C126.095 251.505 127.178 253.454 128.769 254.984C130.36 256.514 132.387 257.555 134.593 257.977C136.8 258.399 139.087 258.183 141.166 257.355C143.244 256.527 145.021 255.125 146.27 253.327C147.52 251.528 148.188 249.413 148.188 247.25C148.188 244.349 146.989 241.567 144.856 239.516C142.723 237.465 139.829 236.312 136.812 236.312ZM170.731 150.275L152.503 213.357C151.501 216.803 149.357 219.841 146.397 222.01C143.437 224.179 139.823 225.36 136.102 225.375H65.8325C62.1003 225.373 58.4711 224.198 55.4983 222.028C52.5255 219.859 50.3724 216.813 49.3672 213.357L24.4275 126.938H11.6875C10.1791 126.938 8.73244 126.361 7.66583 125.336C6.59922 124.31 6 122.919 6 121.469C6 120.018 6.59922 118.627 7.66583 117.602C8.73244 116.576 10.1791 116 11.6875 116H28.75C29.9934 116 31.2027 116.391 32.1927 117.115C33.1826 117.838 33.8987 118.854 34.2313 120.006L40.971 143.344H165.25C166.127 143.344 166.992 143.538 167.777 143.913C168.563 144.287 169.248 144.831 169.778 145.502C170.309 146.174 170.671 146.954 170.837 147.782C171.002 148.61 170.966 149.463 170.731 150.275ZM157.764 154.281H44.1347L60.3512 210.432C60.6838 211.584 61.3999 212.599 62.3898 213.323C63.3798 214.046 64.5891 214.438 65.8325 214.438H136.102C137.345 214.438 138.554 214.046 139.544 213.323C140.534 212.599 141.25 211.584 141.583 210.432L157.764 154.281Z" fill="black"/>
</g>
<defs>
<filter id="filter0_d_0_1" x="189.3" y="32.8" width="366.916" height="223.8" filterUnits="userSpaceOnUse" color-interpolation-filters="sRGB">
<feFlood flood-opacity="0" result="BackgroundImageFix"/>
<feColorMatrix in="SourceAlpha" type="matrix" values="0 0 0 0 0 0 0 0 0 0 0 0 0 0 0 0 0 0 127 0" result="hardAlpha"/>
<feOffset dy="2"/>
<feComposite in2="hardAlpha" operator="out"/>
<feColorMatrix type="matrix" values="0 0 0 0 1 0 0 0 0 1 0 0 0 0 1 0 0 0 1 0"/>
<feBlend mode="normal" in2="BackgroundImageFix" result="effect1_dropShadow_0_1"/>
<feBlend mode="normal" in="SourceGraphic" in2="effect1_dropShadow_0_1" result="shape"/>
</filter>
<filter id="filter1_d_0_1" x="6" y="83" width="182" height="177" filterUnits="userSpaceOnUse" color-interpolation-filters="sRGB">
<feFlood flood-opacity="0" result="BackgroundImageFix"/>
<feColorMatrix in="SourceAlpha" type="matrix" values="0 0 0 0 0 0 0 0 0 0 0 0 0 0 0 0 0 0 127 0" result="hardAlpha"/>
<feOffset dy="2"/>
<feComposite in2="hardAlpha" operator="out"/>
<feColorMatrix type="matrix" values="0 0 0 0 1 0 0 0 0 1 0 0 0 0 1 0 0 0 1 0"/>
<feBlend mode="normal" in2="BackgroundImageFix" result="effect1_dropShadow_0_1"/>
<feBlend mode="normal" in="SourceGraphic" in2="effect1_dropShadow_0_1" result="shape"/>
</filter>
<clipPath id="clip0_0_1">
<rect width="182" height="175" fill="white" transform="translate(6 83)"/>
</clipPath>
</defs>
</svg>
